<?xml version="1.0" encoding="UTF-8" standalone="no"?>
<svg width="40px" height="40px" viewBox="0 0 40 40" version="1.1" xmlns="http://www.w3.org/2000/svg" xmlns:xlink="http://www.w3.org/1999/xlink">
    <!-- Generator: Sketch 41.2 (35397) - http://www.bohemiancoding.com/sketch -->
    <title>Artboard 2</title>
    <desc>Created with Sketch.</desc>
    <defs></defs>
    <g id="Page-1" stroke="none" stroke-width="1" fill="none" fill-rule="evenodd">
        <g id="Artboard-2" transform="translate(-864.000000, -1011.000000)" fill="#000000">
            <g id="Behance-logo" transform="translate(866.000000, 1020.000000)">
                <path d="M11.18892,18.9117549 L5.06120413,18.9117549 L5.06120413,12.7650579 L11.4847407,12.7650579 C11.4847407,12.7650579 13.811271,12.7337682 13.811271,15.9241635 C13.811271,18.583792 12.1097455,18.8851007 11.18892,18.9117549 L11.18892,18.9117549 Z M5.06120413,4.08852695 L10.6584444,4.08852695 L11.4847407,4.08852695 C11.4847407,4.08852695 13.0461406,4.08852695 13.0461406,6.48045429 C13.0461406,8.8735405 12.1275392,9.22004548 11.086606,9.22004548 L5.06120413,9.22004548 L5.06120413,4.08852695 Z M14.3628766,10.5006074 C14.3628766,10.5006074 17.73034,10.2398595 17.73034,6.12467828 C17.73034,2.00833821 14.9756482,3.55271368e-15 11.4847407,3.55271368e-15 L5.06120413,3.55271368e-15 L4.87214575,3.55271368e-15 L0,3.55271368e-15 L0,22.999123 L4.87214575,22.999123 L5.06120413,22.999123 L11.4847407,22.999123 C11.4847407,22.999123 18.4954704,23.22974 18.4954704,16.2115656 C18.4954704,16.2115656 18.8024123,10.5006074 14.3628766,10.5006074 L14.3628766,10.5006074 Z" id="Fill-17"></path>
                <path d="M32.5178803,12.7462641 L24.9420679,12.7462641 C24.9420679,12.7462641 25.43829,9.35555758 29.0001653,9.35555758 C32.5632027,9.35555758 32.5178803,12.7462641 32.5178803,12.7462641 M28.9106826,6.13333333 C20.0414388,6.13333333 20.0495736,14.5851599 20.0495736,14.5851599 C20.0495736,14.5851599 19.4406266,22.9937575 28.9106826,22.9937575 C28.9106826,22.9937575 36.8025897,23.4238308 36.8025897,17.1445393 L32.7433302,17.1445393 C32.7433302,17.1445393 32.8792974,19.5099423 29.0454877,19.5099423 C29.0454877,19.5099423 24.9873903,19.7693164 24.9873903,15.6825118 L36.9373948,15.6825118 C36.9373948,15.6825118 38.2447715,6.13333333 28.9106826,6.13333333" id="Fill-19"></path>
                <polygon id="Fill-21" points="33.9166667 1.53333333 24.6666667 1.53333333 24.6666667 4.6 33.9166667 4.6"></polygon>
            </g>
        </g>
    </g>
</svg>