<?xml version="1.0" encoding="UTF-8" standalone="no"?>
<svg width="225px" height="236px" viewBox="0 0 225 236" version="1.1" xmlns="http://www.w3.org/2000/svg" xmlns:xlink="http://www.w3.org/1999/xlink">
    <!-- Generator: Sketch 41.2 (35397) - http://www.bohemiancoding.com/sketch -->
    <title>Group</title>
    <desc>Created with Sketch.</desc>
    <defs></defs>
    <g id="Page-1" stroke="none" stroke-width="1" fill="none" fill-rule="evenodd">
        <g id="Artboard-2" transform="translate(-695.000000, -443.000000)">
            <g id="Group" transform="translate(693.000000, 446.000000)">
                <text id="foodful" font-family="Athelas-Regular, Athelas" font-size="75" font-weight="normal" fill="#0D4461">
                    <tspan x="0.575" y="232">foodful</tspan>
                </text>
                <g id="Japanesse-Salad" transform="translate(40.000000, 0.000000)">
                    <path d="M62.5555172,43.95264 L62.0936552,44.95616 C61.1928966,46.90688 61.8129655,49.22368 63.5634483,50.46016 L64.4667586,51.0976 C66.9725517,52.87168 66.97,56.59904 64.4642069,58.37056 L63.5634483,59.00544 C62.7035172,59.61472 62.1268276,60.48256 61.8588966,61.44 L102.686483,61.44 C102.954414,60.48256 103.531103,59.61472 104.391034,59.00544 L105.291793,58.37056 C107.797586,56.59904 107.800138,52.87168 105.294345,51.0976 L104.391034,50.46016 C102.640552,49.22368 102.020483,46.90688 102.921241,44.95616 L103.383103,43.95264 C104.671724,41.16224 102.814069,37.93152 99.7596552,37.65504 L98.6624138,37.5552 C96.5291724,37.3632 94.839931,35.66592 94.646,33.52576 L94.5464828,32.42496 C94.2708966,29.36064 91.0506207,27.49696 88.2692414,28.78976 L87.2689655,29.25312 C85.3245517,30.1568 83.0152414,29.53472 81.7827586,27.77856 L81.1473793,26.87488 C79.3815862,24.3584 75.6637241,24.3584 73.897931,26.87488 L73.2651034,27.77856 C72.030069,29.53472 69.7207586,30.1568 67.7763448,29.25312 L66.776069,28.78976 C63.9946897,27.49696 60.7744138,29.36064 60.4988276,32.42496 L60.3993103,33.52576 C60.2972414,34.65984 59.7868966,35.92448 59.3964828,36.75136 C59.1923448,37.18656 59.4092414,37.69856 59.866,37.83936 C62.3462759,38.61504 63.7063448,41.4592 62.5555172,43.95264 Z" id="Fill-751" fill="#FFFFFF"></path>
                    <path d="M59.866,37.83936 C62.3462759,38.61504 63.7063448,41.4592 62.5555172,43.95264 L62.0936552,44.95616 C61.1928966,46.90688 61.8129655,49.22368 63.5634483,50.46016 L64.4667586,51.0976 C66.9725517,52.87168 66.97,56.59904 64.4642069,58.37056 L63.5634483,59.00544 C62.7035172,59.61472 62.1268276,60.48256 61.8588966,61.44 L102.686483,61.44 C102.954414,60.48256 103.531103,59.61472 104.391034,59.00544 L105.291793,58.37056 C107.797586,56.59904 107.800138,52.87168 105.294345,51.0976 L104.391034,50.46016 C102.640552,49.22368 102.020483,46.90688 102.921241,44.95616 L103.383103,43.95264 C104.671724,41.16224 102.814069,37.93152 99.7596552,37.65504 L98.6624138,37.5552 C96.5291724,37.3632 94.839931,35.66592 94.646,33.52576 L94.5464828,32.42496 C94.2708966,29.36064 91.0506207,27.49696 88.2692414,28.78976 L87.2689655,29.25312 C85.3245517,30.1568 83.0152414,29.53472 81.7827586,27.77856 L81.1473793,26.87488 C79.3815862,24.3584 75.6637241,24.3584 73.897931,26.87488 L73.2651034,27.77856 C72.030069,29.53472 69.7207586,30.1568 67.7763448,29.25312 L66.776069,28.78976 C63.9946897,27.49696 60.7744138,29.36064 60.4988276,32.42496 L60.3993103,33.52576 C60.2972414,34.65984 59.7868966,35.92448 59.3964828,36.75136 C59.1923448,37.18656 59.4092414,37.69856 59.866,37.83936 L59.866,37.83936 Z" id="Stroke-752" stroke="#0D4461" stroke-width="5.1" stroke-linecap="round" stroke-linejoin="round"></path>
                    <path d="M127.519862,24.35584 C126.836,36.46464 116.86131,46.08 104.62069,46.08 C103.957241,46.08 103.298897,46.04928 102.648207,45.99296 C102.32669,47.67744 102.939103,49.43616 104.391034,50.46016 L105.294345,51.0976 C107.800138,52.87168 107.797586,56.59904 105.291793,58.37056 L104.391034,59.00544 C103.571931,59.584 103.028414,60.41088 102.745172,61.31456 C102.780897,61.35552 102.811517,61.39904 102.847241,61.44 L137.014828,61.44 C140.65869,57.36192 142.896552,51.98848 142.896552,46.08 C142.896552,36.02688 136.468759,27.50208 127.519862,24.35584 L127.519862,24.35584 Z" id="Fill-753" fill="#FFFFFF"></path>
                    <path d="M127.519862,24.35584 C126.836,36.46464 116.86131,46.08 104.62069,46.08 C103.957241,46.08 103.298897,46.04928 102.648207,45.99296 C102.32669,47.67744 102.939103,49.43616 104.391034,50.46016 L105.294345,51.0976 C107.800138,52.87168 107.797586,56.59904 105.291793,58.37056 L104.391034,59.00544 C103.571931,59.584 103.028414,60.41088 102.745172,61.31456 C102.780897,61.35552 102.811517,61.39904 102.847241,61.44 L137.014828,61.44 C140.65869,57.36192 142.896552,51.98848 142.896552,46.08 C142.896552,36.02688 136.468759,27.50208 127.519862,24.35584 L127.519862,24.35584 Z" id="Stroke-754" stroke="#0D4461" stroke-width="5.1" stroke-linecap="round" stroke-linejoin="round"></path>
                    <path d="M104.62069,0 C91.936069,0 81.6551724,10.31424 81.6551724,23.04 C81.6551724,24.83968 81.8822759,26.58304 82.2701379,28.26496 C83.5638621,29.59872 85.5414483,30.05696 87.2689655,29.25312 L88.2692414,28.78976 C91.0506207,27.49696 94.2708966,29.36064 94.5464828,32.42496 L94.646,33.52576 C94.839931,35.66592 96.5291724,37.3632 98.6624138,37.5552 L99.7596552,37.65504 C102.814069,37.93152 104.671724,41.16224 103.383103,43.95264 L102.921241,44.95616 C102.768138,45.2864 102.719655,45.63456 102.65331,45.98016 C103.304,46.03648 103.957241,46.08 104.62069,46.08 C117.30531,46.08 127.586207,35.7632 127.586207,23.04 C127.586207,10.31424 117.30531,0 104.62069,0 L104.62069,0 Z" id="Fill-755" fill="#D0E8F9"></path>
                    <path d="M104.62069,0 C91.936069,0 81.6551724,10.31424 81.6551724,23.04 C81.6551724,24.83968 81.8822759,26.58304 82.2701379,28.26496 C83.5638621,29.59872 85.5414483,30.05696 87.2689655,29.25312 L88.2692414,28.78976 C91.0506207,27.49696 94.2708966,29.36064 94.5464828,32.42496 L94.646,33.52576 C94.839931,35.66592 96.5291724,37.3632 98.6624138,37.5552 L99.7596552,37.65504 C102.814069,37.93152 104.671724,41.16224 103.383103,43.95264 L102.921241,44.95616 C102.768138,45.2864 102.719655,45.63456 102.65331,45.98016 C103.304,46.03648 103.957241,46.08 104.62069,46.08 C117.30531,46.08 127.586207,35.7632 127.586207,23.04 C127.586207,10.31424 117.30531,0 104.62069,0 L104.62069,0 Z" id="Stroke-756" stroke="#0D4461" stroke-width="5.1" stroke-linecap="round" stroke-linejoin="round"></path>
                    <path d="M74.1173793,128 L102.068966,128 C104.600276,128 106.161931,125.22752 104.855448,123.05408 L104.827379,123.008 C103.020759,119.99488 102.668621,116.20608 104.278759,113.08288 C105.68731,110.35392 107.978759,108.10112 110.859655,106.71872 C130.556414,97.28256 144.524552,86.74048 145.976483,65.23136 C146.114276,63.1936 144.516897,61.44 142.478069,61.44 L3.50606897,61.44 C1.46724138,61.44 -0.130137931,63.1936 0.00765517241,65.23136 C1.45958621,86.74048 15.4277241,97.28256 35.1244828,106.71872 C38.0053793,108.10112 40.2968276,110.35392 41.7053793,113.08288 C43.3155172,116.20608 42.965931,119.99488 41.1567586,123.008 L41.1286897,123.05408 C39.8222069,125.22752 41.3838621,128 43.9151724,128 L74.1173793,128 L74.1173793,128 Z" id="Fill-838" fill="#FFFFFF"></path>
                    <path d="M74.1173793,128 L102.068966,128 C104.600276,128 106.161931,125.22752 104.855448,123.05408 L104.827379,123.008 C103.020759,119.99488 102.668621,116.20608 104.278759,113.08288 C105.68731,110.35392 107.978759,108.10112 110.859655,106.71872 C130.556414,97.28256 144.524552,86.74048 145.976483,65.23136 C146.114276,63.1936 144.516897,61.44 142.478069,61.44 L3.50606897,61.44 C1.46724138,61.44 -0.130137931,63.1936 0.00765517241,65.23136 C1.45958621,86.74048 15.4277241,97.28256 35.1244828,106.71872 C38.0053793,108.10112 40.2968276,110.35392 41.7053793,113.08288 C43.3155172,116.20608 42.965931,119.99488 41.1567586,123.008 L41.1286897,123.05408 C39.8222069,125.22752 41.3838621,128 43.9151724,128 L74.1173793,128 L74.1173793,128 Z" id="Stroke-839" stroke="#0D4461" stroke-width="5.1" stroke-linecap="round" stroke-linejoin="round"></path>
                    <path d="M69.6442069,110.08 L91.862069,110.08 M53.5862069,110.08 L62.2263448,110.08 M53.5862069,117.76 L91.862069,117.76" id="Stroke-840" stroke="#0D4461" stroke-width="5.1" stroke-linecap="round" stroke-linejoin="round"></path>
                    <path d="M93.7937241,12.17792 L101.012552,19.42016 M108.228828,26.65984 L115.447655,33.89952 M115.447655,12.17792 L108.228828,19.42016 M101.012552,26.65984 L95.0695862,32.62208 M125.034483,43.52 L135.241379,43.52 M119.931034,48.64 L119.931034,58.88" id="Stroke-841" stroke="#0D4461" stroke-width="5.1" stroke-linecap="round" stroke-linejoin="round"></path>
                    <path d="M32.0113793,26.304 L46.7093103,5.376 C49.1334483,1.92512 53.9332414,1.09056 57.3755172,3.52256 C60.8177931,5.95456 61.6496552,10.77248 59.2229655,14.22336 L44.5250345,35.15136 C42.1008966,38.6048 37.3011034,39.43936 33.8588276,37.0048 C30.4165517,34.5728 29.5846897,29.75744 32.0113793,26.304 L32.0113793,26.304 Z" id="Fill-842" fill="#FFFFFF"></path>
                    <path d="M32.0113793,26.304 L46.7093103,5.376 C49.1334483,1.92512 53.9332414,1.09056 57.3755172,3.52256 C60.8177931,5.95456 61.6496552,10.77248 59.2229655,14.22336 L44.5250345,35.15136 C42.1008966,38.6048 37.3011034,39.43936 33.8588276,37.0048 C30.4165517,34.5728 29.5846897,29.75744 32.0113793,26.304 L32.0113793,26.304 Z" id="Stroke-843" stroke="#0D4461" stroke-width="5.1" stroke-linecap="round" stroke-linejoin="round"></path>
                    <path d="M64.4642069,51.0976 L63.5634483,50.46016 C61.8129655,49.22368 61.1928966,46.90688 62.0936552,44.95616 L62.5555172,43.95264 C63.8441379,41.16224 61.9864828,37.93152 58.932069,37.65504 L57.8348276,37.5552 C55.7015862,37.3632 54.0097931,35.66592 53.8184138,33.52576 L53.7188966,32.42496 C53.502,30.02368 51.4733793,28.38272 49.2686897,28.40064 L44.5250345,35.15136 C42.1008966,38.6048 37.3011034,39.43936 33.8588276,37.0048 C31.2892414,35.18976 30.1766897,32.04352 30.7865517,29.13024 C29.6102069,29.72672 28.2144138,29.84192 26.9487586,29.25312 L25.9510345,28.78976 C23.1671034,27.49696 19.9468276,29.36064 19.6712414,32.42496 L19.5742759,33.52576 C19.3803448,35.66592 17.6885517,37.3632 15.5553103,37.5552 L14.458069,37.65504 C11.4036552,37.93152 9.546,41.16224 10.8346207,43.95264 L11.2964828,44.95616 C12.1972414,46.90688 11.5771724,49.22368 9.82668966,50.46016 L8.92593103,51.0976 C6.42013793,52.86912 6.42013793,56.59904 8.92593103,58.37056 L9.82668966,59.008 C10.6866207,59.61472 11.2633103,60.48256 11.5337931,61.44 L61.8588966,61.44 C62.1268276,60.48256 62.706069,59.61472 63.5634483,59.008 L64.4642069,58.37056 C66.9725517,56.59904 66.9725517,52.86912 64.4642069,51.0976 L64.4642069,51.0976 Z" id="Fill-844" fill="#D0E8F9"></path>
                    <path d="M64.4642069,51.0976 L63.5634483,50.46016 C61.8129655,49.22368 61.1928966,46.90688 62.0936552,44.95616 L62.5555172,43.95264 C63.8441379,41.16224 61.9864828,37.93152 58.932069,37.65504 L57.8348276,37.5552 C55.7015862,37.3632 54.0097931,35.66592 53.8184138,33.52576 L53.7188966,32.42496 C53.502,30.02368 51.4733793,28.38272 49.2686897,28.40064 L44.5250345,35.15136 C42.1008966,38.6048 37.3011034,39.43936 33.8588276,37.0048 C31.2892414,35.18976 30.1766897,32.04352 30.7865517,29.13024 C29.6102069,29.72672 28.2144138,29.84192 26.9487586,29.25312 L25.9510345,28.78976 C23.1671034,27.49696 19.9468276,29.36064 19.6712414,32.42496 L19.5742759,33.52576 C19.3803448,35.66592 17.6885517,37.3632 15.5553103,37.5552 L14.458069,37.65504 C11.4036552,37.93152 9.546,41.16224 10.8346207,43.95264 L11.2964828,44.95616 C12.1972414,46.90688 11.5771724,49.22368 9.82668966,50.46016 L8.92593103,51.0976 C6.42013793,52.86912 6.42013793,56.59904 8.92593103,58.37056 L9.82668966,59.008 C10.6866207,59.61472 11.2633103,60.48256 11.5337931,61.44 L61.8588966,61.44 C62.1268276,60.48256 62.706069,59.61472 63.5634483,59.008 L64.4642069,58.37056 C66.9725517,56.59904 66.9725517,52.86912 64.4642069,51.0976 L64.4642069,51.0976 Z" id="Stroke-845" stroke="#0D4461" stroke-width="5.1" stroke-linecap="round" stroke-linejoin="round"></path>
                    <path d="M79.1034483,38.4 L75.2758621,42.24 M86.7586207,46.08 L89.3103448,48.64 M79.1034483,51.2 L76.5517241,53.76" id="Stroke-846" stroke="#0D4461" stroke-width="5.1" stroke-linecap="round" stroke-linejoin="round"></path>
                </g>
            </g>
        </g>
    </g>
</svg>