<?xml version="1.0" encoding="UTF-8" standalone="no"?>
<svg width="40px" height="40px" viewBox="0 0 40 40" version="1.1" xmlns="http://www.w3.org/2000/svg" xmlns:xlink="http://www.w3.org/1999/xlink">
    <!-- Generator: Sketch 41.2 (35397) - http://www.bohemiancoding.com/sketch -->
    <title>Artboard 2</title>
    <desc>Created with Sketch.</desc>
    <defs></defs>
    <g id="Page-1" stroke="none" stroke-width="1" fill="none" fill-rule="evenodd">
        <g id="Artboard-2" transform="translate(-783.000000, -1011.000000)" fill="#000000">
            <path d="M802.999,1015 C794.164,1015 787,1022.3444 787,1031.40623 C787,1038.65322 791.584,1044.8021 797.943,1046.97168 C798.743,1047.12241 799.035,1046.6159 799.035,1046.18116 C799.035,1045.79154 799.021,1044.76006 799.013,1043.39125 C794.562,1044.38274 793.623,1041.19193 793.623,1041.19193 C792.896,1039.29713 791.847,1038.79267 791.847,1038.79267 C790.394,1037.77452 791.957,1037.79503 791.957,1037.79503 C793.562,1037.91089 794.407,1039.48579 794.407,1039.48579 C795.835,1041.99271 798.152,1041.26883 799.064,1040.84844 C799.209,1039.78826 799.623,1039.0654 800.08,1038.65527 C796.527,1038.24104 792.792,1036.8343 792.792,1030.54803 C792.792,1028.75679 793.415,1027.29262 794.439,1026.14528 C794.274,1025.73003 793.725,1024.06285 794.595,1021.80406 C794.595,1021.80406 795.939,1021.36317 798.995,1023.48559 C800.272,1023.1216 801.64,1022.94012 803.001,1022.93294 C804.36,1022.94012 805.729,1023.1216 807.007,1023.48559 C810.061,1021.36317 811.402,1021.80406 811.402,1021.80406 C812.275,1024.06285 811.726,1025.73003 811.561,1026.14528 C812.587,1027.29262 813.206,1028.75679 813.206,1030.54803 C813.206,1036.84968 809.465,1038.23694 805.901,1038.64297 C806.475,1039.14948 806.987,1040.1502 806.987,1041.68101 C806.987,1043.87418 806.967,1045.64286 806.967,1046.18116 C806.967,1046.62 807.255,1047.13061 808.067,1046.96963 C814.42,1044.79595 819,1038.65117 819,1031.40623 C819,1022.3444 811.836,1015 802.999,1015" id="Github-logo"></path>
        </g>
    </g>
</svg>